<mxfile host="Electron" agent="Mozilla/5.0 (Windows NT 10.0; Win64; x64) AppleWebKit/537.36 (KHTML, like Gecko) draw.io/27.0.9 Chrome/134.0.6998.205 Electron/35.4.0 Safari/537.36" version="27.0.9">
  <diagram name="Page-1" id="55JhxnJ1S438JvXKGcN5">
    <mxGraphModel dx="1042" dy="626" grid="1" gridSize="10" guides="1" tooltips="1" connect="1" arrows="1" fold="1" page="1" pageScale="1" pageWidth="850" pageHeight="1100" math="0" shadow="0">
      <root>
        <mxCell id="0" />
        <mxCell id="1" parent="0" />
        <mxCell id="A-Jb7ECIgslYtsilUVIs-49" value="Customer Relationship Management" style="rounded=1;whiteSpace=wrap;html=1;fillColor=none;strokeColor=none;" parent="1" vertex="1">
          <mxGeometry x="120" y="80" width="220" height="30" as="geometry" />
        </mxCell>
        <mxCell id="A-Jb7ECIgslYtsilUVIs-50" value="Enterprise Resource Planning" style="rounded=1;whiteSpace=wrap;html=1;fillColor=none;strokeColor=none;" parent="1" vertex="1">
          <mxGeometry x="550" y="80" width="220" height="30" as="geometry" />
        </mxCell>
        <mxCell id="POKOxXdK3BP2NFUV7ags-1" value="&lt;font style=&quot;font-size: 20px;&quot;&gt;&lt;b&gt;Data Integradtion Diagram&amp;nbsp;&lt;/b&gt;&lt;/font&gt;" style="text;strokeColor=none;align=center;fillColor=none;html=1;verticalAlign=middle;whiteSpace=wrap;rounded=0;" vertex="1" parent="1">
          <mxGeometry x="70" y="20" width="290" height="30" as="geometry" />
        </mxCell>
        <mxCell id="POKOxXdK3BP2NFUV7ags-2" value="" style="group" vertex="1" connectable="0" parent="1">
          <mxGeometry x="23" y="120" width="805" height="400" as="geometry" />
        </mxCell>
        <mxCell id="A-Jb7ECIgslYtsilUVIs-41" value="" style="group;fillColor=none;" parent="POKOxXdK3BP2NFUV7ags-2" vertex="1" connectable="0">
          <mxGeometry y="30" width="420" height="370" as="geometry" />
        </mxCell>
        <mxCell id="A-Jb7ECIgslYtsilUVIs-14" style="edgeStyle=orthogonalEdgeStyle;rounded=0;orthogonalLoop=1;jettySize=auto;html=1;exitX=1;exitY=0.5;exitDx=0;exitDy=0;entryX=0;entryY=0.5;entryDx=0;entryDy=0;fillColor=#dae8fc;strokeColor=#000000;" parent="A-Jb7ECIgslYtsilUVIs-41" source="A-Jb7ECIgslYtsilUVIs-7" target="A-Jb7ECIgslYtsilUVIs-13" edge="1">
          <mxGeometry relative="1" as="geometry" />
        </mxCell>
        <mxCell id="A-Jb7ECIgslYtsilUVIs-32" value="" style="group" parent="A-Jb7ECIgslYtsilUVIs-41" vertex="1" connectable="0">
          <mxGeometry x="20" y="74" width="400" height="296" as="geometry" />
        </mxCell>
        <mxCell id="A-Jb7ECIgslYtsilUVIs-1" value="&lt;font style=&quot;font-size: 10px;&quot;&gt;crm_sales_details&lt;/font&gt;" style="swimlane;fontStyle=0;childLayout=stackLayout;horizontal=1;startSize=26;fillColor=#dae8fc;horizontalStack=0;resizeParent=1;resizeParentMax=0;resizeLast=0;collapsible=1;marginBottom=0;html=1;strokeColor=#6c8ebf;container=0;" parent="A-Jb7ECIgslYtsilUVIs-32" vertex="1">
          <mxGeometry y="31.714285714285715" width="160" height="95.14285714285714" as="geometry" />
        </mxCell>
        <mxCell id="A-Jb7ECIgslYtsilUVIs-27" value="&lt;span style=&quot;font-size: 10px;&quot;&gt;Transactional records about sales&lt;/span&gt;" style="text;strokeColor=none;align=center;fillColor=none;html=1;verticalAlign=middle;whiteSpace=wrap;rounded=0;container=0;" parent="A-Jb7ECIgslYtsilUVIs-32" vertex="1">
          <mxGeometry width="160" height="31.714285714285715" as="geometry" />
        </mxCell>
        <mxCell id="A-Jb7ECIgslYtsilUVIs-2" value="&lt;font style=&quot;font-size: 14px;&quot;&gt;sls_cust_id&amp;nbsp;&lt;/font&gt;&lt;span style=&quot;font-size: 9px;&quot;&gt;(11000)&lt;/span&gt;" style="text;strokeColor=#6c8ebf;fillColor=none;align=left;verticalAlign=middle;spacingLeft=4;spacingRight=4;overflow=hidden;rotatable=0;points=[[0,0.5],[1,0.5]];portConstraint=eastwest;whiteSpace=wrap;html=1;container=0;" parent="A-Jb7ECIgslYtsilUVIs-32" vertex="1">
          <mxGeometry y="59.2" width="160" height="35.94285714285714" as="geometry" />
        </mxCell>
        <mxCell id="A-Jb7ECIgslYtsilUVIs-7" value="&lt;span style=&quot;font-size: 14px;&quot;&gt;sls_prd_key &lt;/span&gt;&lt;font style=&quot;font-size: 9px;&quot;&gt;(BK-R93R-62)&lt;/font&gt;" style="text;strokeColor=#6c8ebf;fillColor=none;align=left;verticalAlign=middle;spacingLeft=4;spacingRight=4;overflow=hidden;rotatable=0;points=[[0,0.5],[1,0.5]];portConstraint=eastwest;whiteSpace=wrap;html=1;container=0;" parent="A-Jb7ECIgslYtsilUVIs-32" vertex="1">
          <mxGeometry y="95.14285714285714" width="160" height="31.714285714285715" as="geometry" />
        </mxCell>
        <mxCell id="A-Jb7ECIgslYtsilUVIs-34" value="" style="group" parent="A-Jb7ECIgslYtsilUVIs-41" vertex="1" connectable="0">
          <mxGeometry x="210" y="222" width="170" height="95.14285714285714" as="geometry" />
        </mxCell>
        <mxCell id="A-Jb7ECIgslYtsilUVIs-12" value="&lt;span style=&quot;font-size: 10px;&quot;&gt;crm_prd_info&lt;/span&gt;" style="swimlane;fontStyle=0;childLayout=stackLayout;horizontal=1;startSize=26;fillColor=#dae8fc;horizontalStack=0;resizeParent=1;resizeParentMax=0;resizeLast=0;collapsible=1;marginBottom=0;html=1;strokeColor=#6c8ebf;" parent="A-Jb7ECIgslYtsilUVIs-34" vertex="1">
          <mxGeometry y="31.714285714285715" width="170" height="61.94285714285714" as="geometry" />
        </mxCell>
        <mxCell id="A-Jb7ECIgslYtsilUVIs-13" value="&lt;span style=&quot;font-size: 14px;&quot;&gt;prd_key &lt;/span&gt;&lt;font style=&quot;font-size: 9px;&quot;&gt;(&lt;i&gt;CO-RF&lt;/i&gt;-&lt;b&gt;FR-R92B-58&lt;/b&gt;)&lt;/font&gt;" style="text;strokeColor=#6c8ebf;fillColor=none;align=left;verticalAlign=middle;spacingLeft=4;spacingRight=4;overflow=hidden;rotatable=0;points=[[0,0.5],[1,0.5]];portConstraint=eastwest;whiteSpace=wrap;html=1;" parent="A-Jb7ECIgslYtsilUVIs-12" vertex="1">
          <mxGeometry y="26" width="170" height="35.94285714285714" as="geometry" />
        </mxCell>
        <mxCell id="A-Jb7ECIgslYtsilUVIs-26" value="&lt;font style=&quot;font-size: 10px;&quot;&gt;Current &amp;amp; Historical Product data&lt;/font&gt;" style="text;strokeColor=none;align=center;fillColor=none;html=1;verticalAlign=middle;whiteSpace=wrap;rounded=0;" parent="A-Jb7ECIgslYtsilUVIs-34" vertex="1">
          <mxGeometry x="5" width="160" height="31.714285714285715" as="geometry" />
        </mxCell>
        <mxCell id="A-Jb7ECIgslYtsilUVIs-37" value="" style="group" parent="A-Jb7ECIgslYtsilUVIs-41" vertex="1" connectable="0">
          <mxGeometry x="240" y="31.714285714285715" width="160" height="126.85714285714286" as="geometry" />
        </mxCell>
        <mxCell id="A-Jb7ECIgslYtsilUVIs-8" value="&lt;span style=&quot;font-size: 10px;&quot;&gt;crm_cust_info&lt;/span&gt;" style="swimlane;fontStyle=0;childLayout=stackLayout;horizontal=1;startSize=26;fillColor=#dae8fc;horizontalStack=0;resizeParent=1;resizeParentMax=0;resizeLast=0;collapsible=1;marginBottom=0;html=1;strokeColor=#6c8ebf;" parent="A-Jb7ECIgslYtsilUVIs-37" vertex="1">
          <mxGeometry x="10" y="31.714285714285715" width="140" height="93.65714285714286" as="geometry" />
        </mxCell>
        <mxCell id="A-Jb7ECIgslYtsilUVIs-9" value="&lt;font style=&quot;font-size: 14px;&quot;&gt;cst_id &lt;/font&gt;&lt;font style=&quot;font-size: 9px;&quot;&gt;(11000)&lt;/font&gt;" style="text;strokeColor=#6c8ebf;fillColor=none;align=left;verticalAlign=middle;spacingLeft=4;spacingRight=4;overflow=hidden;rotatable=0;points=[[0,0.5],[1,0.5]];portConstraint=eastwest;whiteSpace=wrap;html=1;" parent="A-Jb7ECIgslYtsilUVIs-8" vertex="1">
          <mxGeometry y="26" width="140" height="35.94285714285714" as="geometry" />
        </mxCell>
        <mxCell id="A-Jb7ECIgslYtsilUVIs-17" value="&lt;font style=&quot;font-size: 14px;&quot;&gt;cst_key &lt;/font&gt;&lt;font style=&quot;font-size: 9px;&quot;&gt;(AW00011000)&lt;/font&gt;" style="text;strokeColor=#6c8ebf;fillColor=none;align=left;verticalAlign=middle;spacingLeft=4;spacingRight=4;overflow=hidden;rotatable=0;points=[[0,0.5],[1,0.5]];portConstraint=eastwest;whiteSpace=wrap;html=1;" parent="A-Jb7ECIgslYtsilUVIs-8" vertex="1">
          <mxGeometry y="61.94285714285714" width="140" height="31.714285714285715" as="geometry" />
        </mxCell>
        <mxCell id="A-Jb7ECIgslYtsilUVIs-28" value="&lt;span style=&quot;font-size: 10px;&quot;&gt;Genric Customer Data&lt;/span&gt;" style="text;strokeColor=none;align=center;fillColor=none;html=1;verticalAlign=middle;whiteSpace=wrap;rounded=0;" parent="A-Jb7ECIgslYtsilUVIs-37" vertex="1">
          <mxGeometry width="160" height="31.714285714285715" as="geometry" />
        </mxCell>
        <mxCell id="A-Jb7ECIgslYtsilUVIs-51" style="edgeStyle=orthogonalEdgeStyle;rounded=0;orthogonalLoop=1;jettySize=auto;html=1;exitX=0.75;exitY=0;exitDx=0;exitDy=0;" parent="A-Jb7ECIgslYtsilUVIs-41" source="A-Jb7ECIgslYtsilUVIs-40" edge="1">
          <mxGeometry relative="1" as="geometry">
            <mxPoint x="308" y="-10" as="targetPoint" />
          </mxGeometry>
        </mxCell>
        <mxCell id="A-Jb7ECIgslYtsilUVIs-40" value="" style="rounded=1;whiteSpace=wrap;html=1;fillColor=none;" parent="A-Jb7ECIgslYtsilUVIs-41" vertex="1">
          <mxGeometry y="-10" width="410" height="380" as="geometry" />
        </mxCell>
        <mxCell id="A-Jb7ECIgslYtsilUVIs-11" style="edgeStyle=orthogonalEdgeStyle;rounded=0;orthogonalLoop=1;jettySize=auto;html=1;entryX=0;entryY=0.5;entryDx=0;entryDy=0;fillColor=#dae8fc;strokeColor=#1A1A1A;" parent="A-Jb7ECIgslYtsilUVIs-41" source="A-Jb7ECIgslYtsilUVIs-2" target="A-Jb7ECIgslYtsilUVIs-9" edge="1">
          <mxGeometry relative="1" as="geometry" />
        </mxCell>
        <mxCell id="A-Jb7ECIgslYtsilUVIs-18" style="edgeStyle=orthogonalEdgeStyle;rounded=0;orthogonalLoop=1;jettySize=auto;html=1;exitX=1;exitY=0.5;exitDx=0;exitDy=0;entryX=0;entryY=0.5;entryDx=0;entryDy=0;" parent="POKOxXdK3BP2NFUV7ags-2" source="A-Jb7ECIgslYtsilUVIs-17" target="A-Jb7ECIgslYtsilUVIs-16" edge="1">
          <mxGeometry relative="1" as="geometry" />
        </mxCell>
        <mxCell id="A-Jb7ECIgslYtsilUVIs-21" style="edgeStyle=orthogonalEdgeStyle;rounded=0;orthogonalLoop=1;jettySize=auto;html=1;exitX=1;exitY=0.5;exitDx=0;exitDy=0;entryX=0;entryY=0.5;entryDx=0;entryDy=0;" parent="POKOxXdK3BP2NFUV7ags-2" source="A-Jb7ECIgslYtsilUVIs-13" target="A-Jb7ECIgslYtsilUVIs-20" edge="1">
          <mxGeometry relative="1" as="geometry" />
        </mxCell>
        <mxCell id="A-Jb7ECIgslYtsilUVIs-25" style="edgeStyle=orthogonalEdgeStyle;rounded=0;orthogonalLoop=1;jettySize=auto;html=1;exitX=1;exitY=0.5;exitDx=0;exitDy=0;entryX=0;entryY=0.5;entryDx=0;entryDy=0;" parent="POKOxXdK3BP2NFUV7ags-2" source="A-Jb7ECIgslYtsilUVIs-17" target="A-Jb7ECIgslYtsilUVIs-23" edge="1">
          <mxGeometry relative="1" as="geometry" />
        </mxCell>
        <mxCell id="A-Jb7ECIgslYtsilUVIs-38" value="" style="group" parent="POKOxXdK3BP2NFUV7ags-2" vertex="1" connectable="0">
          <mxGeometry x="570" y="50" width="222.5" height="350" as="geometry" />
        </mxCell>
        <mxCell id="A-Jb7ECIgslYtsilUVIs-22" value="&lt;span style=&quot;font-size: 10px;&quot;&gt;erp_loc_a101&lt;/span&gt;" style="swimlane;fontStyle=0;childLayout=stackLayout;horizontal=1;startSize=26;fillColor=#fff2cc;horizontalStack=0;resizeParent=1;resizeParentMax=0;resizeLast=0;collapsible=1;marginBottom=0;html=1;strokeColor=#d6b656;" parent="A-Jb7ECIgslYtsilUVIs-38" vertex="1">
          <mxGeometry y="28.37837837837838" width="170" height="58.16216216216216" as="geometry" />
        </mxCell>
        <mxCell id="A-Jb7ECIgslYtsilUVIs-23" value="&lt;span style=&quot;font-size: 14px;&quot;&gt;cst_key&amp;nbsp;&lt;/span&gt;&lt;font style=&quot;font-size: 9px;&quot;&gt;(AW-00011000)&lt;/font&gt;" style="text;strokeColor=#6c8ebf;fillColor=none;align=left;verticalAlign=middle;spacingLeft=4;spacingRight=4;overflow=hidden;rotatable=0;points=[[0,0.5],[1,0.5]];portConstraint=eastwest;whiteSpace=wrap;html=1;" parent="A-Jb7ECIgslYtsilUVIs-22" vertex="1">
          <mxGeometry y="26" width="170" height="32.16216216216216" as="geometry" />
        </mxCell>
        <mxCell id="A-Jb7ECIgslYtsilUVIs-36" value="&lt;span style=&quot;font-size: 10px;&quot;&gt;Customer Location (country)&lt;/span&gt;" style="text;strokeColor=none;align=center;fillColor=none;html=1;verticalAlign=middle;whiteSpace=wrap;rounded=0;" parent="A-Jb7ECIgslYtsilUVIs-38" vertex="1">
          <mxGeometry width="160" height="28.37837837837838" as="geometry" />
        </mxCell>
        <mxCell id="A-Jb7ECIgslYtsilUVIs-46" value="" style="rounded=1;whiteSpace=wrap;html=1;fillColor=none;" parent="A-Jb7ECIgslYtsilUVIs-38" vertex="1">
          <mxGeometry x="-52.5" y="-28.37837837837838" width="275" height="378.3783783783784" as="geometry" />
        </mxCell>
        <mxCell id="A-Jb7ECIgslYtsilUVIs-31" value="" style="group" parent="POKOxXdK3BP2NFUV7ags-2" vertex="1" connectable="0">
          <mxGeometry x="575" y="160" width="230" height="240" as="geometry" />
        </mxCell>
        <mxCell id="A-Jb7ECIgslYtsilUVIs-45" value="" style="group" parent="A-Jb7ECIgslYtsilUVIs-31" vertex="1" connectable="0">
          <mxGeometry width="160" height="90" as="geometry" />
        </mxCell>
        <mxCell id="A-Jb7ECIgslYtsilUVIs-15" value="&lt;span style=&quot;font-size: 10px;&quot;&gt;erp_cust_az12&lt;/span&gt;" style="swimlane;fontStyle=0;childLayout=stackLayout;horizontal=1;startSize=26;fillColor=#fff2cc;horizontalStack=0;resizeParent=1;resizeParentMax=0;resizeLast=0;collapsible=1;marginBottom=0;html=1;strokeColor=#d6b656;align=center;container=0;" parent="A-Jb7ECIgslYtsilUVIs-45" vertex="1">
          <mxGeometry x="10" y="30" width="140" height="60" as="geometry" />
        </mxCell>
        <mxCell id="A-Jb7ECIgslYtsilUVIs-29" value="&lt;span style=&quot;font-size: 10px;&quot;&gt;Core customer Date including DOB&lt;/span&gt;" style="text;strokeColor=none;align=center;fillColor=none;html=1;verticalAlign=middle;whiteSpace=wrap;rounded=0;container=0;" parent="A-Jb7ECIgslYtsilUVIs-45" vertex="1">
          <mxGeometry width="160" height="30" as="geometry" />
        </mxCell>
        <mxCell id="A-Jb7ECIgslYtsilUVIs-16" value="&lt;span style=&quot;font-size: 14px;&quot;&gt;cid &lt;/span&gt;&lt;font style=&quot;font-size: 9px;&quot;&gt;(NAS&lt;b&gt;AW00011000&lt;/b&gt;)&lt;/font&gt;" style="text;strokeColor=#6c8ebf;fillColor=none;align=left;verticalAlign=middle;spacingLeft=4;spacingRight=4;overflow=hidden;rotatable=0;points=[[0,0.5],[1,0.5]];portConstraint=eastwest;whiteSpace=wrap;html=1;container=0;" parent="A-Jb7ECIgslYtsilUVIs-45" vertex="1">
          <mxGeometry x="10" y="56" width="140" height="34" as="geometry" />
        </mxCell>
        <mxCell id="A-Jb7ECIgslYtsilUVIs-39" value="" style="group" parent="POKOxXdK3BP2NFUV7ags-2" vertex="1" connectable="0">
          <mxGeometry x="570" y="270" width="195" height="90" as="geometry" />
        </mxCell>
        <mxCell id="A-Jb7ECIgslYtsilUVIs-19" value="&lt;span style=&quot;font-size: 10px;&quot;&gt;erp_px_cat_g1v2&lt;/span&gt;" style="swimlane;fontStyle=0;childLayout=stackLayout;horizontal=1;startSize=26;fillColor=#fff2cc;horizontalStack=0;resizeParent=1;resizeParentMax=0;resizeLast=0;collapsible=1;marginBottom=0;html=1;strokeColor=#d6b656;" parent="A-Jb7ECIgslYtsilUVIs-39" vertex="1">
          <mxGeometry x="20" y="30" width="140" height="60" as="geometry" />
        </mxCell>
        <mxCell id="A-Jb7ECIgslYtsilUVIs-20" value="&lt;span style=&quot;font-size: 14px;&quot;&gt;id &lt;/span&gt;&lt;font style=&quot;font-size: 9px;&quot;&gt;(&lt;i&gt;AC_BR&lt;/i&gt;)&lt;/font&gt;" style="text;strokeColor=#6c8ebf;fillColor=none;align=left;verticalAlign=middle;spacingLeft=4;spacingRight=4;overflow=hidden;rotatable=0;points=[[0,0.5],[1,0.5]];portConstraint=eastwest;whiteSpace=wrap;html=1;" parent="A-Jb7ECIgslYtsilUVIs-19" vertex="1">
          <mxGeometry y="26" width="140" height="34" as="geometry" />
        </mxCell>
        <mxCell id="A-Jb7ECIgslYtsilUVIs-35" value="&lt;span style=&quot;font-size: 10px;&quot;&gt;Core Product Data (Category &amp;amp; SubCat)&lt;/span&gt;" style="text;strokeColor=none;align=center;fillColor=none;html=1;verticalAlign=middle;whiteSpace=wrap;rounded=0;" parent="A-Jb7ECIgslYtsilUVIs-39" vertex="1">
          <mxGeometry width="195" height="30" as="geometry" />
        </mxCell>
        <mxCell id="A-Jb7ECIgslYtsilUVIs-48" value="&lt;h3&gt;ERP&lt;/h3&gt;" style="rounded=1;whiteSpace=wrap;html=1;fillColor=#fff2cc;strokeColor=#d6b656;" parent="POKOxXdK3BP2NFUV7ags-2" vertex="1">
          <mxGeometry x="590" width="120" height="40" as="geometry" />
        </mxCell>
        <mxCell id="A-Jb7ECIgslYtsilUVIs-47" value="&lt;h3&gt;CRM&lt;/h3&gt;" style="rounded=1;whiteSpace=wrap;html=1;fillColor=#dae8fc;strokeColor=#6c8ebf;" parent="POKOxXdK3BP2NFUV7ags-2" vertex="1">
          <mxGeometry x="145" width="120" height="40" as="geometry" />
        </mxCell>
      </root>
    </mxGraphModel>
  </diagram>
</mxfile>
